# xmcd
#
# Track frame offsets:
#	150
#	24051
#	33958
#	59714
#	88758
#	109028
#	126169
#	153930
#	177912
#	202621
#	220704
#	242146
#	268793
#	294715
#
# Disc length: 4142 seconds
#
# Revision: 1
# Processed by: cddbd v1.5PL3 Copyright (c) Steve Scherf et al.
# Submitted via: audiograbber 1.82.01
#
DISCID=be102c0e
DTITLE=Santana - 1984-10-31 - The Ritz , New York City - Disc 1
DYEAR=1900
DGENRE=
TTITLE0=Santana - Spirit
TTITLE1=Santana - Primera Invasion
TTITLE2=Santana - Open Invitation
TTITLE3=Santana - Samba Pa Ti
TTITLE4=Santana - Breaking Out
TTITLE5=Santana - Written In Sand
TTITLE6=Santana - Body Surfin`
TTITLE7=Santana - She`s Not There
TTITLE8=Santana - Incident At Neshabur
TTITLE9=Santana - I`ve Waited All My Life
TTITLE10=Santana - I`ll Be Waiting
TTITLE11=Santana - Savor
TTITLE12=Santana - Super Boogie
TTITLE13=Santana - Hong Kong Blues
EXTD=
EXTT0=
EXTT1=
EXTT2=
EXTT3=
EXTT4=
EXTT5=
EXTT6=
EXTT7=
EXTT8=
EXTT9=
EXTT10=
EXTT11=
EXTT12=
EXTT13=
PLAYORDER=
